<?xml version="1.0" encoding="utf-8"?>
<!-- Generator: Adobe Illustrator 23.0.1, SVG Export Plug-In . SVG Version: 6.00 Build 0)  -->
<svg version="1.1" xmlns="http://www.w3.org/2000/svg" xmlns:xlink="http://www.w3.org/1999/xlink" x="0px" y="0px"
	 viewBox="0 0 4389 4885" style="enable-background:new 0 0 4389 4885;" xml:space="preserve">
<g id="Livello_2">
	
		<image style="overflow:visible;" width="1920" height="2138" xlink:href="assets/img/northgate_main.png"  transform="matrix(2.2859 0 0 2.2859 0 0)">
	</image>
</g>
<g id="Livello_1">
	<g>
		<a>
			<path id="old_mans_rock" d="M2187.5,3815.5l-207,81l40,130h130l69-155L2187.5,3815.5z"/>
		</a>
		<a>
			<path id="morn_isle_deadmans_rock" d="M2595.5,3243.5l-298,211l61,155l-9,10l64,155l-14,127l109,69l255-9l-7-347l-85-28l30-228
				L2595.5,3243.5z"/>
		</a>
		<a>
			<path id="gledstone_fields" d="M4316.2,2386.5l-83.7,46l-117,32l-36,36l-45-50l-15-50l46-84l-39-226l39-150l82-41l168.7,110
				V2386.5z"/>
		</a>
		<a>
			<path id="kintown" d="M4316.2,2009.5l-168.7-110l-81,39l-43,151l40,227l-41,81l-94-114l-39-10l-37-157l29-165l144-115l1-111
				l-38-47l-6-117l4-30l99-114l73-27l157.7-13V2009.5z"/>
		</a>
		<a>
			<path id="applewine_hill" d="M4316.2,995.5l-134.7-66l-131-42l-187,153l-48,102l144,95l194,151l162.7-11V995.5z"/>
		</a>
		<a>
			<path id="east_mudwreck" d="M3642.5,1366.5l20-53l-17-86l43-93l84-59l44,70l138,92l200,154l-68,27l-101,113l-32-1l-74-70l-72-5
				L3642.5,1366.5z"/>
		</a>
		<a>
			<path id="west_mudwreck" d="M3048.5,939.5l177-93l341,105l27,273l10,37l-17,71l-91-45l-3-84l-110-109l-161-36l-32-72
				L3048.5,939.5z"/>
		</a>
		<a>
			<path id="suttwine_fields" d="M3146.5,496.5l-61,145l33,44l-34,67l93,50l37,11l13,32l297,97l42,8l135-59l15-86l-21-163l-32-29
				l-385-127l-91,27L3146.5,496.5z"/>
		</a>
		<a>
			<path id="breywood_forest" d="M2117.5,209.5l81-134h2117.7v878l-320.7-354l-108-45l-225,59l-382-129l-95,29l-146-68l-365-53
				l-376-42l-119-20L2117.5,209.5z"/>
		</a>
		<a>
			<path id="breytown" d="M2188.5,756.5l-3,74l239,1l66-38l192,2l58,80l247,74l56-10l183-93l-12-33l-38-12l-93-49l35-69l-132-169
				l-184-4l-126,35l-44,46l-6,38l-70,52l-244-12L2188.5,756.5z"/>
		</a>
		<a>
			<path id="highcrowe_fields" d="M2081.5,110.5l-174,230l-140,127l1,97l94,70l67-3l142,72l54,31l65,21l122-85h53l193,12l69-54l5-36
				l45-48l1-152l-385-43l-115-21l-59-119l35-58L2081.5,110.5z"/>
		</a>
		<a>
			<path id="glen_hill" d="M1417.5,75.5l-94,98l-117-27l4,56l158,376l256-20l148-97l137-121l-7-130l-175-83l-92,35l-91-87H1417.5z"
				/>
		</a>
		<a>
			<path id="darrowtown" d="M1245.5,1411.5l-63-67l74-101l3-58l-37-71l15-56l-102-163l-52-128l160-73l76-87l62-27l245-22l81,30
				l61-23l94,67l68,2l67,42l11,50h-81l-40,58l-16,71l-111-1l-69,43l-47-17l-97,65l-3,48l-78,49l-47,73v96l-78,99l-13,73l-44,1
				L1245.5,1411.5z"/>
		</a>
		<a>
			<path id="fentic_fields" d="M1179.5,75.5l15,157l73,176l30,150l22,49l-76,90l-159,69l-97-256l-119-329l44-106H1179.5z"/>
		</a>
		<a>
			<path id="jons_fields" d="M526.5,464.5l3-80l78-81l123,10l103,50l-11,345l-150,14l-108-57l-13-133L526.5,464.5z"/>
		</a>
		<a>
			<path id="stillgrain_fields" d="M77.5,75.5v380l91,107l243-128l70-123l1-236H77.5z"/>
		</a>
		<a>
			<path id="jeffson_fields" d="M558.5,859.5l-185,219l-296-194v-428l91,106l244-128l116,29l22,63l21,204L558.5,859.5z"/>
		</a>
		<a>
			<path id="harker_fields" d="M133.5,1738.5l-56-37v-817l296,196l-27,143l52,114l41,41l-8,30l-39-9l-79,133l-82,47l-98,148V1738.5z
				"/>
		</a>
		<a>
			<path id="malmstown" d="M668.5,1354.5l14-78l12-4l1-115l13,5l11-38l-10-9l43-91l61-28l-4-12l42-12l57-4l27,20l35,6
				c0,0,86.4,7.7,87-68c0-3-27-73-27-73l-45-119l-156,19l-61,60c0,0,36.7,14.5,28,55s-87,24-87,24l-63,43l-23-2l-78,59l-23,70
				l-44,39l23,97l-13,67l46,88l-50,63l63,15l94,28l60-24l12-51L668.5,1354.5z"/>
		</a>
		<a>
			<path id="laketown" d="M713.5,1386.5l-12,50l-57,25l30,83l-83,124l-48,126l-14,16l106,52l137-75l19-53l128-85l69,6l205-196l-7-21
				l-139,53l-100-59l-8-68l-46,23l-94-6L713.5,1386.5z"/>
		</a>
		<a>
			<path id="laker_fields" d="M527.5,1811.5l-69,1l-318-42l-7-44l98-145l85-50l77-132l145,28l106,33l32,84l-81,119l-51,129
				L527.5,1811.5z"/>
		</a>
		<a>
			<path id="irontown" d="M608.5,2404.5l-65-31l-152-35l-54-34l52-146l45-70l-31-39l-11-155l66-81l65-3l114,51l-16,114l-59,100
				l8,105l48,35l22,102L608.5,2404.5z"/>
		</a>
		<a>
			<path id="pagle_fields" d="M339.5,2302.5l49-142l44-74c0,0-29-37.1-29-37c-0.3-0.9-12-154-12-154l-99-18l-89-86l-126,4v413l51,24
				l57-7L339.5,2302.5z"/>
		</a>
		<a>
			<path id="swinstead" d="M212.5,2274.5l-99,12l1,80l30,28l-54,56l60,90l11,80l-63,77l117,106l262-46l61-63l4-168l33-62l-9-25
				l-205-62l-123-86L212.5,2274.5z"/>
		</a>
		<a>
			<path id="gendron_fields" d="M444.5,3354.5h-75l-65-35l-23-100l-79-19l-39-6l49-136l20-87l-22-76l8-91l262-46l58-66l50,41l2,69
				l63,43l-4,142l-48,27l-75,160l9,35L444.5,3354.5z"/>
		</a>
		<a>
			<path id="veshauper_isles" d="M409.5,3630.5l-52,40l-50,77l32,187l59,128l72,100l26,11l37-41l113-222l-13-42l-134-46l-44-67
				l-24-82L409.5,3630.5z"/>
		</a>
		<a>
			<path id="farwater_slums" d="M258.5,3552.5l48,71h58l25-39l49-14l111,40l52,73l130,43l115-34l18-47l-54-78l-36-4l-16-40l-111-31
				l-29,14l-102-17l-37,23l-124,2l-11-8l-70-5L258.5,3552.5z"/>
		</a>
		<a>
			<path id="smogtown" d="M601.5,2462.5l45,91l-12,10l36,79l17,2l59,47l31,24l85,29l7-17l108,30l62,74l22,62l-11,28l-15,39l-14,7
				l53,75l-20,100l-30-19l-119,175l26,16l21,91l-3,157l65,80l83,51l100,38l33-25l26,14l-29,74l-139-74l-61-1l-81,34l-33-37l-69-23
				l21-49l-57-78l-34-5l-15-38l-112-30l-29,12l-103-16l-35,22l-124,2l-10-9l-70-3l-9-41l30-77l73-24l76-6l92-141l-14-40l76-156
				l48-28l4-143l-58-41l-5-70l-50-43l6-169l26-60H601.5z"/>
		</a>
		<a>
			<path id="dirktown_slums" d="M640.5,2316.5l-30,85l28,26l45,105l18,4l32,73l79,46l19,15l64,7l77,27l73,60l21,7l19-30l40-13l5-25
				l37-8l45-54l-23-42l-1-36l151-55l68-126l-12-19l-75-40l-37,3l-33,24l1,35l10,15l-16,45l-105,48l-70-5l-79-37l-17-35l-138-24
				l-76-25h-49l-14-22L640.5,2316.5z"/>
		</a>
		<a>
			<path id="golden_oak_hill" d="M1283.5,1922.5l-76-4l-34,8l-46-63h-70c0,0-144.8,33.7-145,34c-0.3,0.5-40,24-40,24l2,48l64,38
				l32,74l-45,106l10,44l-22,39l36,65l-19,72l44,10l17,35l79,36l68,6l108-48l16-47l-12-13v-35l30-24l6-80l-61-62l19-130l-22-30
				L1283.5,1922.5z"/>
		</a>
		<a>
			<path id="irongate" d="M640.5,2316.5l55,30l14,21l50-2l80,28l92,15l20-74l-38-63l20-38l-7-46l45-108l-35-71l-62-40l-3-50l-28-50
				l-48-34l-21-47l-135,74l-17,111l-59,100l5,107l50,34L640.5,2316.5z"/>
		</a>
		<a>
			<path id="greenfallen_dist" d="M1380.5,1610.5l-76-25l-2-25l-25-18l-19,15l-21-21l17-16l-30-45l-31-18l-207,198l-68-7l-126,86
				l-21,52l21,43l51,37l28,55l41-24l144-35l70-1l45,63l35-6c0,0,74.6,3.4,75,3c0.4-0.4,37.1-55,37-55c-0.9-0.3-34-54-34-54l-5-55
				l103-40L1380.5,1610.5z"/>
		</a>
		<a>
			<path id="durner_dist" d="M1743.5,2146.5l-21,88l-70,32l-25,118l8,66l-162-95l-67,27l-12-19l-72-40l-42,3l5-79l-61-61l20-133
				l-22-29l54-92l42-68l-36-54l-4-53l103-40l37,6l56,79l-2,23h21l67,75l34,23l11-7l20,24c0,0-31.6,21.4-32,24s76,93,76,93l35-19
				l15,18l-10,11l31,41L1743.5,2146.5z"/>
		</a>
		<a>
			<path id="graver_hill" d="M1408.5,2381.5l-68,127l-153,55l2,37l23,41l39,45l76-8l82,117l70-51l40,7l155-70l31-55l-70-14l-21-24
				l-56,7l-32-15l-3-27l117-62l-5-43l-160-94L1408.5,2381.5z"/>
		</a>
		<a>
			<path id="gennmere_dist" d="M2024.5,3289.5l53-92l-1-28l-100-77l27-22l3-42l15-2l8-34l-25-84l28-122l-76-27l-59-92l-20-142
				l-60-34l-77-8l-112-100l14,109l-121,59l5,29l32,15l56-8l22,25l70,15l-31,55l-153,69l-43-5l43,94l2,36l134,32l23,47l-31,38l-1,27
				l98,90l28,3l8,78l148,158l24,15L2024.5,3289.5z"/>
		</a>
		<a>
			<path id="lesser_canden" d="M1086.5,2962.5l32-91l-53-98l22-33l38-14l5-23l39-9l43-55l40,47l75-8l82,117l70-51l45,97v35l134,29
				l25,48l-33,41l-1,26l100,90l-157-7l-245,2l-24,17l-50-19l-27,22l-44,19l-26-9l7-20l-34-26L1086.5,2962.5z"/>
		</a>
		<a>
			<path id="greater_canden" d="M1428.5,3588.5l-77-15l-145-81l-7-74l36-53l54-14l74-136l-21-33l-97-59l27-20l51,17l26-13l96-4
				l148,1l184,8l6,80l148,156l-19,20l-26-27l-57,41l-71,21l-67-22l-93-14l-49,62l29,75l-41,55l16,76l-63-9L1428.5,3588.5z"/>
		</a>
		<a>
			<path id="upper_commons" d="M1598.5,3365.5l-51,62l30,75c0,0-37.3,51.5-39,54s13,82,13,82l132,62l12,33l53,34l17-34l-26-40l59-33
				l46,31l96-22l-8-23l-34-30l15-26l37-19l21-44l-17-34l-45-52v-73l-24-28l-59,46l-66,17l-76-25L1598.5,3365.5z"/>
		</a>
		<a>
			<path id="lower_commons" d="M1909.5,3440.5l2-73l19-17l25,15l69-76l74,40v-25l91-3l23,23l-34,29l28,128l52,19l32,79l51-10l18,39
				l-11,10l65,154l-5,24h-101l-103-46l-89,46l-117,47l-174-15l-28,19l-31-21l-16-59l16-34l-25-41l57-33l46,33l96-23l-7-22l-33-28
				l15-28l39-21l19-45l-19-33L1909.5,3440.5z"/>
		</a>
		<a>
			<path id="the_narrows" d="M2509.5,2886.5l2,45h-47l-187,98l-274,43c0,0,2.9-43,3-43c0.4,0.1,17-3,17-3l6-34c0,0-24.7-82.5-25-84
				c-0.2-0.9,27-122,27-122l38,9l19,35l185,51l53-21l108,32L2509.5,2886.5z"/>
		</a>
		<a>
			<path id="valasian_dist" d="M1744.5,2146.5l-21,86l-73,34l-23,117l113,100l76,8l64,34l60-93l68-73l201-18l-166-142l-241-27l-2-22
				L1744.5,2146.5z"/>
		</a>
		<a>
			<path id="andarien_dist" d="M2483.5,2842.5l-80-93l-43-119l38-43l5-76l-43-57l6-34l-110-33l-48-46l-202,18l-65,72l-63,96l18,140
				l60,92l113,39l18,30l187,53l53-18l112,30l71-8v-38L2483.5,2842.5z"/>
		</a>
		<a>
			<path id="freeman_dist" d="M3107.5,3359.5l80,8l-3-105c0,0,34.8,7.8,38-27c0.1-1,67-39,67-39l69-63l-84-157l-35-107l1-102l28-40
				l-40-31l-47,76l-162,74l-49,56l-220,10l-60-29l-85,2l3,27l22,10l-14,108l-67,17l11,27l77-7l23,62l-32,43l-34,68l59,69l48,46
				l104-7l16-108l19,11l21-9l1-21l133-28l1,43l27,13l47-26l50,83l-17,8L3107.5,3359.5z"/>
		</a>
		<a>
			<path id="craftman_dist" d="M3227.5,2696.5l-47,77l-161,71l-48,57l-221,11l-70-34l-76,7l-5-49l17-4l-17-71l-54-4l-1-61l17-4
				l41-59l-38-60l-40-63l26-11l157-55l229,34l43,67l2,33l46,2l69,53l2,31l28-2l45,25l17-18L3227.5,2696.5z"/>
		</a>
		<a>
			<path id="hightown" d="M2440.5,1804.5l252,111l18,122l74,37l34,36l-26,67l-69,57l25,70l-305,28l-117-16l-100-121l4-22l109-20
				l15-58l58-55L2440.5,1804.5z"/>
		</a>
		<a>
			<path id="targenhold" d="M2079.5,1813.5l129-10l156,32l-39,113l-63,61l-22,97l-64,9l-57-72l-94-45l-24-74L2079.5,1813.5z"/>
		</a>
		<a>
			<path id="temple_dist" d="M3254.5,2659.5l-134-116l-46-67l-138-85l-107-27l-43-121l49-40l38-100l-96-100l-3-45l37-45l48-30
				l219-55l9,44l-19,47l68,88l97-39l175,104l-9,45l81,204l-89,191l-56,14L3254.5,2659.5z"/>
		</a>
		<a>
			<path id="shriner_dist" d="M3480.5,2323.5l-90,188l-59,16l138,43l116-8l140,34l99-23l17-146l-54-54l11-69l-119,42l-160-11
				L3480.5,2323.5z"/>
		</a>
		<a>
			<path id="thalonian_dist" d="M3471.5,2571.5l119-10l133,35l103-22l40,60l72,1l141-138l-14,93l13,135l-35,62l-395,10l-94,128
				l-83,68l-121-48l-49-91l54-127c0,0-34.9-56.2-35-57c-0.1-1-66-10-66-10l78-132L3471.5,2571.5z"/>
		</a>
		<a>
			<path id="mariqtown" d="M3926.5,2280.5l94,115l11,51l47,52l-140,134l-74,2l-38-63l16-147l-55-51l11-67l90-33L3926.5,2280.5z"/>
		</a>
		<a>
			<path id="coinflow_dist" d="M3785.5,1766.5l-112-103l-4,145l-247,34l-108,173l96,56l-11,46l79,207l43,11l154,10l212-70l-36-158
				l14-124l-20-30l-57-43L3785.5,1766.5z"/>
		</a>
		<a>
			<path id="lantern_dist" d="M3300.5,1626.5l-99,78l-123,125l10,44l-20,48l68,84l96-36l84,47l105-176l-89-53L3300.5,1626.5z"/>
		</a>
		<a>
			<path id="mithrilgate" d="M3644.5,1366.5l-47,97l9,15l-42,26l-125-1l234,159l113,102l2,153l59,47l62-27l115-100v-110l-37-50
				l-6-114l-100-102l-79-7L3644.5,1366.5z"/>
		</a>
		<a>
			<path id="bronze_hill" d="M3437.5,1503.5l-143,81l37,202l92,55l247-33l3-146L3437.5,1503.5z"/>
		</a>
		<a>
			<path id="crowne_dist" d="M2942.5,1557.5l195,3l15,37l40-13l173-92l31-15l112-76l14,18l36-23l28-64l-90-46l-1-85l-111-108
				l-166-37l-10,41l-32-2l-22,43l-81,28l1,146l-70,82l-69,30l13,104L2942.5,1557.5z"/>
		</a>
		<a>
			<path id="redwani_dist" d="M2864.5,914.5l127,34l53-10l145,47l30,70l-9,42l-32-4l-23,43l-81,29l1,144l-71,85l-69,30l-44-40
				l-68-33l-186-5l-163-82l3-96l89-12l2-24l22-19l116,2l20,18l62-2l-5-58l47-52l4-43L2864.5,914.5z"/>
		</a>
		<a>
			<path id="balder_dist" d="M2204.5,1643.5l44,29l40-3l70-16l13-28l-29-16l37-65l38,12l28,1l9-25l222-41l7-13l183,19l29,73l42,9
				l11-49l-13-106l-45-41l-68-33l-185-4l-163-82l3-50l-114-1l12,47l-4,65l-52,43l11,125l-50,62l-29,6L2204.5,1643.5z"/>
		</a>
		<a>
			<path id="oakgate" d="M2184.5,833.5l242-2l68-34l190-3l61,82l120,37l-32,66l-3,44l-48,52l6,56l-59,2l-27-18h-112l-22,16l-2,29
				l-89,9l-1,44h-113l-90-33l-127,6l7-167l72-44L2184.5,833.5z"/>
		</a>
		<a>
			<path id="ashers_hill" d="M2146.5,1185.5l128-5l89,33l11,49l-3,64l-51,42l11,125l-49,60l-31,7l-47,83l-121,30l-64-27l4-48l26-60
				l-48-17l-90-5l27-110l61-39l111-18l25,28l41-35l-41-56L2146.5,1185.5z"/>
		</a>
		<a>
			<path id="marcher_dist" d="M1465.5,1046.5l-23,36l-21,35l-2,47l-1,46l-26,36l-28,33l-25,34l-11,70l-44,2l-38,24l41,75l50,43
				l117,46l24,68l159,24l91,26l45-1l161-96l85,51l4-46l27-63l-49-16l-87-7l25-106l-61-55l-5-77l-98-8l-77-42l-84-18l3-57
				L1465.5,1046.5z"/>
		</a>
		<a>
			<path id="ascalan_dist" d="M1699.5,1226.5l77,43l97,6l5,77l59,53l63-38l111-17l25,27l41-34l-42-57l13-100l5-165l72-46l-40-141
				l5-80l-63-20l-56-30l-65,24l-82-2l-35,57l-19,75l34,63l-35,61l-123-1l65,138l-36,43l-67,15L1699.5,1226.5z"/>
		</a>
		<a>
			<path id="targengate" d="M1870,856h-107l-71,42l-50-19l-94,66l-3,47l-79,53l152,104l-4,58l85,18l9-47l67-16l38-43l-67-138l64-1
				l61,3l34-62L1870,856z"/>
		</a>
		<rect x="64.4" y="4647.3" width="223.3" height="207.5"/>
	</g>
	<polygon points="1490.7,1717.5 1527.3,1691.5 1628,1691.5 1756.1,1766.2 1756.1,1851.3 1648.5,1879.6 1596.9,1876 1514.5,1785.6 	
		"/>
</g>
</svg>
